<svg width="152" height="24" viewBox="0 0 152 24" fill="none" xmlns="http://www.w3.org/2000/svg">
<path d="M86.6986 11.7043H85.12L90.1106 0H91.7961L96.8114 11.7043H95.1259L93.6049 8.02112H89.716L90.1353 6.7934H93.0952L90.8999 1.48964L86.6986 11.7043Z" fill="#0E5AAC"/>
<path d="M104.047 4.86178C103.433 4.56713 102.731 4.4198 101.942 4.4198C100.204 4.4198 99.3355 5.33923 99.3355 7.17808C99.3355 9.35525 100.204 10.4438 101.942 10.4438C102.731 10.4438 103.433 10.3374 104.047 10.1246V4.86178ZM105.568 11.1886C104.521 11.5324 103.23 11.7043 101.695 11.7043C99.1245 11.7043 97.8391 10.2147 97.8391 7.23538C97.8391 4.48528 99.204 3.11023 101.934 3.11023C102.679 3.11023 103.383 3.24664 104.047 3.51947V0H105.568V11.1886Z" fill="#0E5AAC"/>
<path d="M106.801 3.11023H108.445L110.92 9.84633L113.378 3.11023H115.023L111.512 11.7043H110.098L106.801 3.11023Z" fill="#0E5AAC"/>
<path d="M117.941 3.11023V11.7043H116.42V3.11023H117.941ZM117.941 0V1.43234H116.42V0H117.941Z" fill="#0E5AAC"/>
<path d="M120.498 11.295V9.98548C121.512 10.3129 122.537 10.4766 123.573 10.4766C124.949 10.4766 125.637 10.0673 125.637 9.24884C125.637 8.48493 125.157 8.10297 124.198 8.10297H122.965C121.101 8.10297 120.17 7.2572 120.17 5.56568C120.17 3.92871 121.367 3.11023 123.763 3.11023C124.793 3.11023 125.815 3.24664 126.829 3.51947V4.82904C125.815 4.50165 124.793 4.33795 123.763 4.33795C122.326 4.33795 121.608 4.74719 121.608 5.56568C121.608 6.32959 122.061 6.71155 122.965 6.71155H124.198C126.172 6.71155 127.158 7.55732 127.158 9.24884C127.158 10.8858 125.963 11.7043 123.573 11.7043C122.537 11.7043 121.512 11.5679 120.498 11.295Z" fill="#0E5AAC"/>
<path d="M130.324 7.37452C130.324 9.44255 131.187 10.4766 132.913 10.4766C134.64 10.4766 135.503 9.44255 135.503 7.37452C135.503 5.35014 134.64 4.33795 132.913 4.33795C131.187 4.33795 130.324 5.35014 130.324 7.37452ZM128.802 7.40726C128.802 4.54257 130.173 3.11023 132.913 3.11023C135.654 3.11023 137.024 4.54257 137.024 7.40726C137.024 10.2665 135.654 11.6961 132.913 11.6961C130.184 11.6961 128.813 10.2665 128.802 7.40726Z" fill="#0E5AAC"/>
<path d="M139.08 11.7043V3.11023H140.107L140.379 4.207C141.135 3.47582 142.045 3.11023 143.108 3.11023V4.37069C142.078 4.37069 141.242 4.73355 140.601 5.45927V11.7043H139.08Z" fill="#0E5AAC"/>
<path d="M143.61 3.11023H145.263L147.704 9.82178L150.229 3.11023H151.84L148.255 11.958C147.619 13.5186 146.666 14.4926 145.394 14.88L144.81 13.8078C145.775 13.3876 146.477 12.7028 146.915 11.7534L143.61 3.11023Z" fill="#0E5AAC"/>
<path d="M85.3426 23.6485V22.6527C86.2228 22.9651 87.1735 23.1213 88.1946 23.1213C89.6382 23.1213 90.36 22.5942 90.36 21.5399C90.36 20.6417 89.8279 20.1927 88.7638 20.1927H87.684C85.9275 20.1927 85.0492 19.4312 85.0492 17.9083C85.0492 16.3073 86.1739 15.5068 88.4235 15.5068C89.4015 15.5068 90.3111 15.624 91.1522 15.8583V16.854C90.3111 16.5416 89.4015 16.3854 88.4235 16.3854C86.8977 16.3854 86.1348 16.8931 86.1348 17.9083C86.1348 18.8064 86.6512 19.2555 87.684 19.2555H88.7638C90.5517 19.2555 91.4456 20.017 91.4456 21.5399C91.4456 23.1799 90.3619 23.9999 88.1946 23.9999C87.1735 23.9999 86.2228 23.8828 85.3426 23.6485Z" fill="#248700"/>
<path d="M95.4536 17.7912C97.2063 17.7912 98.0826 18.6561 98.0826 20.386C98.0826 20.632 98.065 20.8955 98.0298 21.1767H93.7049C93.7049 22.4341 94.4404 23.0628 95.9114 23.0628C96.6116 23.0628 97.2337 22.9847 97.7775 22.8285V23.7071C97.2337 23.8632 96.5725 23.9413 95.794 23.9413C93.6775 23.9413 92.6193 22.8929 92.6193 20.796C92.6193 18.7928 93.5641 17.7912 95.4536 17.7912ZM93.7049 20.2747H97.0381C97.0146 19.1969 96.4865 18.6581 95.4536 18.6581C94.3582 18.6581 93.7753 19.1969 93.7049 20.2747Z" fill="#248700"/>
<path d="M99.5438 23.9413V17.7912H100.277L100.471 18.5761C101.011 18.0528 101.66 17.7912 102.419 17.7912V18.6932C101.684 18.6932 101.087 18.9529 100.629 19.4722V23.9413H99.5438Z" fill="#248700"/>
<path d="M102.631 17.7912H103.804L105.571 22.6117L107.325 17.7912H108.499L105.993 23.9413H104.984L102.631 17.7912Z" fill="#248700"/>
<path d="M110.582 17.7912V23.9413H109.496V17.7912H110.582ZM110.582 15.5654V16.5904H109.496V15.5654H110.582Z" fill="#248700"/>
<path d="M117.102 23.7656C116.593 23.8828 116.045 23.9413 115.459 23.9413C113.268 23.9413 112.172 22.8773 112.172 20.7491C112.172 18.7772 113.268 17.7912 115.459 17.7912C116.045 17.7912 116.593 17.8498 117.102 17.9669V18.8455C116.593 18.7283 116.026 18.6698 115.4 18.6698C113.972 18.6698 113.258 19.3629 113.258 20.7491C113.258 22.2915 113.972 23.0628 115.4 23.0628C116.026 23.0628 116.593 23.0042 117.102 22.887V23.7656Z" fill="#248700"/>
<path d="M121.028 17.7912C122.78 17.7912 123.657 18.6561 123.657 20.386C123.657 20.632 123.639 20.8955 123.604 21.1767H119.279C119.279 22.4341 120.014 23.0628 121.485 23.0628C122.186 23.0628 122.808 22.9847 123.351 22.8285V23.7071C122.808 23.8632 122.146 23.9413 121.368 23.9413C119.251 23.9413 118.193 22.8929 118.193 20.796C118.193 18.7928 119.138 17.7912 121.028 17.7912ZM119.279 20.2747H122.612C122.589 19.1969 122.06 18.6581 121.028 18.6581C119.932 18.6581 119.349 19.1969 119.279 20.2747Z" fill="#248700"/>
<path d="M76.9598 0H78.3998V24H76.9598V0Z" fill="#0E5AAC"/>
<path d="M19.3328 23.0069C17.2766 23.669 15.0536 24 12.664 24C4.32792 24 0.159912 19.8897 0.159912 11.669C0.159912 3.88966 4.32792 0 12.664 0C15.0536 0 17.2766 0.331034 19.3328 0.993103V3.64138C17.2766 2.86897 15.1648 2.48276 12.9974 2.48276C6.49529 2.48276 3.24424 5.54483 3.24424 11.669C3.24424 18.2345 6.49529 21.5172 12.9974 21.5172C15.1648 21.5172 17.2766 21.131 19.3328 20.3586V23.0069Z" fill="#333333"/>
<path d="M24.101 23.0069V20.1931C26.6018 21.0759 29.3027 21.5172 32.2036 21.5172C36.3049 21.5172 38.3556 20.0276 38.3556 17.0483C38.3556 14.5103 36.844 13.2414 33.8208 13.2414H30.7531C25.7626 13.2414 23.2674 11.0897 23.2674 6.78621C23.2674 2.26207 26.4629 0 32.8538 0C35.6325 0 38.2166 0.331034 40.6063 0.993103V3.8069C38.2166 2.92414 35.6325 2.48276 32.8538 2.48276C28.5191 2.48276 26.3517 3.91724 26.3517 6.78621C26.3517 9.32414 27.8188 10.5931 30.7531 10.5931H33.8208C38.9002 10.5931 41.4399 12.7448 41.4399 17.0483C41.4399 21.6828 38.3611 24 32.2036 24C29.3027 24 26.6018 23.669 24.101 23.0069Z" fill="#333333"/>
<path d="M45.2799 24V0H49.1903L57.9263 20.0224L66.4959 0H70.2399V24H67.4943V4.31329L59.0412 24H56.6117L48.0255 4.31329V24H45.2799Z" fill="#333333"/>
<path fill-rule="evenodd" clip-rule="evenodd" d="M64.4799 1.44871e-07L58.2777 13.92L56.7999 10.5937L61.4633 0L64.4799 1.44871e-07Z" fill="#248700"/>
<path fill-rule="evenodd" clip-rule="evenodd" d="M55.8769 8.64L59.6799 7.37101e-08L56.718 0L54.3999 5.23278L55.8769 8.64Z" fill="#0E5AAC"/>
</svg>
